<mxfile host="app.diagrams.net" agent="Mozilla/5.0 (Windows NT 10.0; Win64; x64) AppleWebKit/537.36 (KHTML, like Gecko) Chrome/140.0.0.0 Safari/537.36 Edg/140.0.0.0" version="28.2.5">
  <diagram name="Page-1" id="2uTxAWnvE2p6xMJG2jdr">
    <mxGraphModel dx="1042" dy="616" grid="1" gridSize="10" guides="1" tooltips="1" connect="1" arrows="1" fold="1" page="1" pageScale="1" pageWidth="827" pageHeight="1169" math="0" shadow="0">
      <root>
        <mxCell id="0" />
        <mxCell id="1" parent="0" />
        <mxCell id="_DWHYlfgnZvCnFombpv0-1" value="" style="rounded=1;whiteSpace=wrap;html=1;labelBackgroundColor=#ffffff;dashed=1;rotation=0;glass=0;strokeWidth=2;opacity=70;fillColor=#d5e8d4;strokeColor=#82b366;" vertex="1" parent="1">
          <mxGeometry x="970" y="610" width="200" height="150" as="geometry" />
        </mxCell>
        <mxCell id="_DWHYlfgnZvCnFombpv0-2" value="" style="rounded=1;whiteSpace=wrap;html=1;labelBackgroundColor=#ffffff;fillColor=#d5e8d4;dashed=1;strokeColor=#82b366;opacity=70;strokeWidth=2;" vertex="1" parent="1">
          <mxGeometry x="490" y="455" width="430" height="110" as="geometry" />
        </mxCell>
        <mxCell id="_DWHYlfgnZvCnFombpv0-3" value="" style="rounded=1;whiteSpace=wrap;html=1;labelBackgroundColor=#ffffff;dashed=1;strokeColor=#b85450;fillColor=#FFCCCC;opacity=70;strokeWidth=2;" vertex="1" parent="1">
          <mxGeometry x="500" y="190" width="360" height="110" as="geometry" />
        </mxCell>
        <mxCell id="_DWHYlfgnZvCnFombpv0-4" value="&lt;font style=&quot;font-size: 16px&quot;&gt;&lt;b&gt;电动自行车骑行人员在太阳辐射影响下热反应动态变化研究&lt;/b&gt;&lt;/font&gt;" style="rounded=1;html=1;horizontal=0;fontSize=16;align=center;fontFamily=Tahoma;verticalAlign=middle;fillColor=#f5f5f5;strokeColor=#666666;fontColor=#333333;" vertex="1" parent="1">
          <mxGeometry x="280" y="255" width="46" height="560" as="geometry" />
        </mxCell>
        <mxCell id="_DWHYlfgnZvCnFombpv0-5" value="&lt;font face=&quot;Tahoma&quot; style=&quot;font-size: 18px&quot;&gt;理论&lt;/font&gt;" style="rounded=1;whiteSpace=wrap;html=1;strokeColor=#FFCCCC;gradientColor=#FFCCCC;gradientDirection=south;" vertex="1" parent="1">
          <mxGeometry x="360" y="190" width="120" height="230" as="geometry" />
        </mxCell>
        <mxCell id="_DWHYlfgnZvCnFombpv0-6" value="&lt;span style=&quot;font-size: 16px;&quot;&gt;人体与环境之间的传热&lt;/span&gt;" style="rounded=1;whiteSpace=wrap;html=1;horizontal=1;align=center;fontFamily=Tahoma;strokeColor=#CCCCCC;fontSize=16;" vertex="1" parent="1">
          <mxGeometry x="510" y="200" width="340" height="40" as="geometry" />
        </mxCell>
        <mxCell id="_DWHYlfgnZvCnFombpv0-7" value="对流换热" style="rounded=1;whiteSpace=wrap;html=1;fontFamily=Tahoma;strokeColor=#CCCCCC;" vertex="1" parent="1">
          <mxGeometry x="510" y="250" width="100" height="40" as="geometry" />
        </mxCell>
        <mxCell id="_DWHYlfgnZvCnFombpv0-8" value="辐射传热" style="rounded=1;whiteSpace=wrap;html=1;fontFamily=Tahoma;strokeColor=#CCCCCC;" vertex="1" parent="1">
          <mxGeometry x="630" y="250" width="100" height="40" as="geometry" />
        </mxCell>
        <mxCell id="_DWHYlfgnZvCnFombpv0-9" value="服装导热" style="rounded=1;whiteSpace=wrap;html=1;fontFamily=Tahoma;strokeColor=#CCCCCC;" vertex="1" parent="1">
          <mxGeometry x="750" y="250" width="100" height="40" as="geometry" />
        </mxCell>
        <mxCell id="_DWHYlfgnZvCnFombpv0-10" value="" style="endArrow=classic;html=1;fontColor=#000000;startArrow=none;startFill=0;endSize=4;exitX=0.5;exitY=0;exitDx=0;exitDy=0;entryX=0.5;entryY=0;entryDx=0;entryDy=0;" edge="1" parent="1" source="_DWHYlfgnZvCnFombpv0-41" target="_DWHYlfgnZvCnFombpv0-30">
          <mxGeometry width="50" height="50" relative="1" as="geometry">
            <mxPoint x="340" y="170" as="sourcePoint" />
            <mxPoint x="340" y="745" as="targetPoint" />
            <Array as="points">
              <mxPoint x="340" y="420" />
            </Array>
          </mxGeometry>
        </mxCell>
        <mxCell id="_DWHYlfgnZvCnFombpv0-11" value="&lt;font style=&quot;font-size: 16px;&quot;&gt;数据收集&lt;/font&gt;" style="rounded=1;whiteSpace=wrap;html=1;horizontal=1;fontFamily=Tahoma;strokeColor=#CCCCCC;fontSize=16;" vertex="1" parent="1">
          <mxGeometry x="500" y="465" width="410" height="40" as="geometry" />
        </mxCell>
        <mxCell id="_DWHYlfgnZvCnFombpv0-12" value="&lt;font style=&quot;font-size: 14px;&quot;&gt;主观热感知&lt;/font&gt;" style="rounded=1;whiteSpace=wrap;html=1;labelBackgroundColor=none;fillColor=#f8cecc;strokeColor=#b85450;fontFamily=Tahoma;fontSize=14;opacity=70;" vertex="1" parent="1">
          <mxGeometry x="900" y="285" width="120" height="60" as="geometry" />
        </mxCell>
        <mxCell id="_DWHYlfgnZvCnFombpv0-13" value="" style="shape=flexArrow;endArrow=classic;html=1;fontColor=#000000;exitX=1;exitY=0.5;exitDx=0;exitDy=0;entryX=0.5;entryY=0;entryDx=0;entryDy=0;fillColor=#ffffff;" edge="1" parent="1" source="_DWHYlfgnZvCnFombpv0-3" target="_DWHYlfgnZvCnFombpv0-12">
          <mxGeometry width="50" height="50" relative="1" as="geometry">
            <mxPoint x="700" y="330" as="sourcePoint" />
            <mxPoint x="750" y="280" as="targetPoint" />
            <Array as="points">
              <mxPoint x="960" y="245" />
            </Array>
          </mxGeometry>
        </mxCell>
        <mxCell id="_DWHYlfgnZvCnFombpv0-14" value="" style="rounded=1;whiteSpace=wrap;html=1;labelBackgroundColor=#ffffff;fillColor=#d5e8d4;dashed=1;strokeColor=#82b366;opacity=70;strokeWidth=2;" vertex="1" parent="1">
          <mxGeometry x="970" y="455" width="445" height="110" as="geometry" />
        </mxCell>
        <mxCell id="_DWHYlfgnZvCnFombpv0-15" value="&lt;font style=&quot;font-size: 16px&quot;&gt;数据分析&lt;/font&gt;" style="rounded=1;whiteSpace=wrap;html=1;horizontal=1;fontFamily=Tahoma;strokeColor=#CCCCCC;" vertex="1" parent="1">
          <mxGeometry x="980" y="465" width="425" height="40" as="geometry" />
        </mxCell>
        <mxCell id="_DWHYlfgnZvCnFombpv0-16" value="&lt;font style=&quot;font-size: 14px;&quot;&gt;偏移项&lt;/font&gt;" style="rounded=1;whiteSpace=wrap;html=1;labelBackgroundColor=none;glass=0;shadow=0;fontSize=14;fontFamily=Tahoma;strokeColor=#CCCCCC;" vertex="1" parent="1">
          <mxGeometry x="1040" y="690" width="120" height="60" as="geometry" />
        </mxCell>
        <mxCell id="_DWHYlfgnZvCnFombpv0-17" value="&lt;font style=&quot;font-size: 14px;&quot;&gt;基础项&lt;/font&gt;" style="rounded=1;whiteSpace=wrap;html=1;labelBackgroundColor=none;fontSize=14;fontFamily=Tahoma;strokeColor=#CCCCCC;" vertex="1" parent="1">
          <mxGeometry x="1040" y="620" width="120" height="60" as="geometry" />
        </mxCell>
        <mxCell id="_DWHYlfgnZvCnFombpv0-18" value="&lt;font style=&quot;font-size: 14px&quot;&gt;骑行的动态热感觉模型&lt;/font&gt;" style="rounded=1;whiteSpace=wrap;html=1;labelBackgroundColor=none;fontSize=14;fontFamily=Tahoma;strokeColor=#CCCCCC;" vertex="1" parent="1">
          <mxGeometry x="980" y="620" width="50" height="130" as="geometry" />
        </mxCell>
        <mxCell id="_DWHYlfgnZvCnFombpv0-19" value="&lt;font style=&quot;font-size: 18px&quot; face=&quot;Tahoma&quot;&gt;实验与分析&lt;/font&gt;" style="rounded=1;whiteSpace=wrap;html=1;fillColor=#d5e8d4;strokeColor=#82b366;gradientColor=#ffffff;gradientDirection=north;" vertex="1" parent="1">
          <mxGeometry x="360" y="455" width="120" height="305" as="geometry" />
        </mxCell>
        <mxCell id="_DWHYlfgnZvCnFombpv0-20" value="&lt;font style=&quot;font-size: 18px&quot; face=&quot;Tahoma&quot;&gt;模型评价&lt;/font&gt;" style="rounded=1;whiteSpace=wrap;html=1;fillColor=#dae8fc;strokeColor=#6c8ebf;gradientColor=#ffffff;gradientDirection=north;" vertex="1" parent="1">
          <mxGeometry x="360" y="790" width="120" height="110" as="geometry" />
        </mxCell>
        <mxCell id="_DWHYlfgnZvCnFombpv0-21" value="" style="rounded=1;whiteSpace=wrap;html=1;labelBackgroundColor=#ffffff;fillColor=#dae8fc;dashed=1;strokeColor=#6c8ebf;opacity=70;strokeWidth=2;" vertex="1" parent="1">
          <mxGeometry x="700" y="790" width="230" height="110" as="geometry" />
        </mxCell>
        <mxCell id="_DWHYlfgnZvCnFombpv0-22" value="&lt;font style=&quot;font-size: 16px&quot;&gt;对比评价&lt;/font&gt;" style="rounded=1;whiteSpace=wrap;html=1;horizontal=1;fontFamily=Tahoma;strokeColor=#CCCCCC;" vertex="1" parent="1">
          <mxGeometry x="710" y="800" width="210" height="40" as="geometry" />
        </mxCell>
        <mxCell id="_DWHYlfgnZvCnFombpv0-23" value="交叉验证评估模型性能" style="rounded=1;whiteSpace=wrap;html=1;fontFamily=Tahoma;strokeColor=#CCCCCC;" vertex="1" parent="1">
          <mxGeometry x="710" y="850" width="100" height="40" as="geometry" />
        </mxCell>
        <mxCell id="_DWHYlfgnZvCnFombpv0-24" value="与其他动态热舒适模型对比" style="rounded=1;whiteSpace=wrap;html=1;fontFamily=Tahoma;strokeColor=#CCCCCC;" vertex="1" parent="1">
          <mxGeometry x="820" y="850" width="100" height="40" as="geometry" />
        </mxCell>
        <mxCell id="_DWHYlfgnZvCnFombpv0-25" value="" style="endArrow=none;dashed=1;html=1;dashPattern=1 2;strokeWidth=3;shadow=0;fillColor=#f8cecc;fontColor=#000000;jumpSize=6;strokeColor=#b85450;" edge="1" parent="1">
          <mxGeometry width="50" height="50" relative="1" as="geometry">
            <mxPoint x="340" y="435" as="sourcePoint" />
            <mxPoint x="970" y="435" as="targetPoint" />
          </mxGeometry>
        </mxCell>
        <mxCell id="_DWHYlfgnZvCnFombpv0-26" value="" style="endArrow=none;dashed=1;html=1;dashPattern=1 2;strokeWidth=3;shadow=0;fillColor=#f8cecc;fontColor=#000000;jumpSize=6;strokeColor=#b85450;" edge="1" parent="1">
          <mxGeometry width="50" height="50" relative="1" as="geometry">
            <mxPoint x="340" y="180" as="sourcePoint" />
            <mxPoint x="970" y="180" as="targetPoint" />
          </mxGeometry>
        </mxCell>
        <mxCell id="_DWHYlfgnZvCnFombpv0-27" value="" style="endArrow=none;dashed=1;html=1;dashPattern=1 2;strokeWidth=3;shadow=0;fillColor=#dae8fc;fontColor=#000000;jumpSize=6;strokeColor=#6c8ebf;" edge="1" parent="1">
          <mxGeometry width="50" height="50" relative="1" as="geometry">
            <mxPoint x="340" y="910" as="sourcePoint" />
            <mxPoint x="970" y="910" as="targetPoint" />
          </mxGeometry>
        </mxCell>
        <mxCell id="_DWHYlfgnZvCnFombpv0-28" value="" style="endArrow=none;dashed=1;html=1;dashPattern=1 2;strokeWidth=3;shadow=0;fillColor=#d5e8d4;fontColor=#000000;jumpSize=6;strokeColor=#82b366;" edge="1" parent="1">
          <mxGeometry width="50" height="50" relative="1" as="geometry">
            <mxPoint x="340" y="445" as="sourcePoint" />
            <mxPoint x="970" y="445" as="targetPoint" />
          </mxGeometry>
        </mxCell>
        <mxCell id="_DWHYlfgnZvCnFombpv0-29" value="" style="endArrow=none;dashed=1;html=1;dashPattern=1 2;strokeWidth=3;shadow=0;fillColor=#dae8fc;fontColor=#000000;jumpSize=6;strokeColor=#6c8ebf;" edge="1" parent="1">
          <mxGeometry width="50" height="50" relative="1" as="geometry">
            <mxPoint x="340" y="780" as="sourcePoint" />
            <mxPoint x="970" y="780" as="targetPoint" />
          </mxGeometry>
        </mxCell>
        <mxCell id="_DWHYlfgnZvCnFombpv0-30" value="" style="ellipse;whiteSpace=wrap;html=1;aspect=fixed;labelBackgroundColor=#ffffff;fillColor=#dae8fc;strokeColor=#FFFFFF;" vertex="1" parent="1">
          <mxGeometry x="330" y="835" width="20" height="20" as="geometry" />
        </mxCell>
        <mxCell id="_DWHYlfgnZvCnFombpv0-31" value="" style="endArrow=classic;html=1;fontColor=#000000;endFill=1;entryX=0.5;entryY=0;entryDx=0;entryDy=0;rounded=1;endSize=4;" edge="1" parent="1" source="_DWHYlfgnZvCnFombpv0-32" target="_DWHYlfgnZvCnFombpv0-41">
          <mxGeometry width="50" height="50" relative="1" as="geometry">
            <mxPoint x="340" y="170" as="sourcePoint" />
            <mxPoint x="340" y="760" as="targetPoint" />
            <Array as="points" />
          </mxGeometry>
        </mxCell>
        <mxCell id="_DWHYlfgnZvCnFombpv0-32" value="" style="ellipse;whiteSpace=wrap;html=1;aspect=fixed;labelBackgroundColor=#ffffff;fillColor=#f8cecc;strokeColor=#FFFFFF;" vertex="1" parent="1">
          <mxGeometry x="330" y="295" width="20" height="20" as="geometry" />
        </mxCell>
        <mxCell id="_DWHYlfgnZvCnFombpv0-33" value="" style="endArrow=classic;html=1;fontColor=#000000;endFill=1;startArrow=oval;startFill=1;endSize=4;" edge="1" parent="1" target="_DWHYlfgnZvCnFombpv0-32">
          <mxGeometry width="50" height="50" relative="1" as="geometry">
            <mxPoint x="340" y="180" as="sourcePoint" />
            <mxPoint x="340" y="665" as="targetPoint" />
            <Array as="points" />
          </mxGeometry>
        </mxCell>
        <mxCell id="_DWHYlfgnZvCnFombpv0-34" value="" style="endArrow=none;html=1;fontColor=#000000;endFill=0;startArrow=oval;startFill=1;endSize=4;entryX=0.5;entryY=1;entryDx=0;entryDy=0;" edge="1" parent="1" target="_DWHYlfgnZvCnFombpv0-30">
          <mxGeometry width="50" height="50" relative="1" as="geometry">
            <mxPoint x="340" y="910" as="sourcePoint" />
            <mxPoint x="310" y="825" as="targetPoint" />
            <Array as="points" />
          </mxGeometry>
        </mxCell>
        <mxCell id="_DWHYlfgnZvCnFombpv0-35" value="" style="rounded=1;whiteSpace=wrap;html=1;labelBackgroundColor=#ffffff;fillColor=none;dashed=1;" vertex="1" parent="1">
          <mxGeometry x="1120" y="510" width="290" height="50" as="geometry" />
        </mxCell>
        <mxCell id="_DWHYlfgnZvCnFombpv0-36" value="" style="endArrow=none;dashed=1;html=1;dashPattern=1 2;strokeWidth=3;shadow=0;fillColor=#d5e8d4;fontColor=#000000;jumpSize=6;strokeColor=#82b366;" edge="1" parent="1">
          <mxGeometry width="50" height="50" relative="1" as="geometry">
            <mxPoint x="340" y="770" as="sourcePoint" />
            <mxPoint x="970" y="770" as="targetPoint" />
          </mxGeometry>
        </mxCell>
        <mxCell id="_DWHYlfgnZvCnFombpv0-37" value="" style="rounded=1;whiteSpace=wrap;html=1;labelBackgroundColor=#ffffff;fillColor=#dae8fc;dashed=1;strokeColor=#6c8ebf;opacity=70;strokeWidth=2;" vertex="1" parent="1">
          <mxGeometry x="500" y="790" width="160" height="110" as="geometry" />
        </mxCell>
        <mxCell id="_DWHYlfgnZvCnFombpv0-38" value="&lt;font style=&quot;font-size: 16px&quot;&gt;评价指标&lt;/font&gt;" style="rounded=1;whiteSpace=wrap;html=1;horizontal=1;fontFamily=Tahoma;strokeColor=#CCCCCC;" vertex="1" parent="1">
          <mxGeometry x="510" y="800" width="140" height="40" as="geometry" />
        </mxCell>
        <mxCell id="_DWHYlfgnZvCnFombpv0-39" value="以20%不满意率为指标" style="rounded=1;whiteSpace=wrap;html=1;fontFamily=Tahoma;strokeColor=#CCCCCC;" vertex="1" parent="1">
          <mxGeometry x="510" y="850" width="140" height="40" as="geometry" />
        </mxCell>
        <mxCell id="_DWHYlfgnZvCnFombpv0-40" value="换热量" style="rounded=1;whiteSpace=wrap;html=1;strokeColor=#CCCCCC;" vertex="1" parent="1">
          <mxGeometry x="1235" y="515" width="100" height="40" as="geometry" />
        </mxCell>
        <mxCell id="_DWHYlfgnZvCnFombpv0-41" value="" style="ellipse;whiteSpace=wrap;html=1;aspect=fixed;labelBackgroundColor=#ffffff;fillColor=#d5e8d4;strokeColor=#FFFFFF;" vertex="1" parent="1">
          <mxGeometry x="330" y="565" width="20" height="20" as="geometry" />
        </mxCell>
        <mxCell id="_DWHYlfgnZvCnFombpv0-42" value="" style="rounded=1;whiteSpace=wrap;html=1;labelBackgroundColor=#ffffff;dashed=1;strokeColor=#b85450;fillColor=#FFCCCC;opacity=70;strokeWidth=2;" vertex="1" parent="1">
          <mxGeometry x="500" y="310" width="290" height="110" as="geometry" />
        </mxCell>
        <mxCell id="_DWHYlfgnZvCnFombpv0-43" value="&lt;span style=&quot;font-size: 16px&quot;&gt;人体对环境的反应&lt;/span&gt;" style="rounded=1;whiteSpace=wrap;html=1;horizontal=1;align=center;fontFamily=Tahoma;strokeColor=#CCCCCC;fontSize=16;" vertex="1" parent="1">
          <mxGeometry x="510" y="320" width="270" height="40" as="geometry" />
        </mxCell>
        <mxCell id="_DWHYlfgnZvCnFombpv0-44" value="核心温度" style="rounded=1;whiteSpace=wrap;html=1;fontFamily=Tahoma;strokeColor=#CCCCCC;" vertex="1" parent="1">
          <mxGeometry x="580" y="370" width="60" height="40" as="geometry" />
        </mxCell>
        <mxCell id="_DWHYlfgnZvCnFombpv0-45" value="皮肤温度" style="rounded=1;whiteSpace=wrap;html=1;fontFamily=Tahoma;strokeColor=#CCCCCC;" vertex="1" parent="1">
          <mxGeometry x="510" y="370" width="60" height="40" as="geometry" />
        </mxCell>
        <mxCell id="_DWHYlfgnZvCnFombpv0-46" value="出汗、喘气、颤栗" style="rounded=1;whiteSpace=wrap;html=1;fontFamily=Tahoma;strokeColor=#CCCCCC;" vertex="1" parent="1">
          <mxGeometry x="650" y="370" width="60" height="40" as="geometry" />
        </mxCell>
        <mxCell id="_DWHYlfgnZvCnFombpv0-47" value="代谢率变化" style="rounded=1;whiteSpace=wrap;html=1;fontFamily=Tahoma;strokeColor=#CCCCCC;" vertex="1" parent="1">
          <mxGeometry x="720" y="370" width="60" height="40" as="geometry" />
        </mxCell>
        <mxCell id="_DWHYlfgnZvCnFombpv0-48" value="" style="shape=flexArrow;endArrow=classic;html=1;shadow=0;fontSize=16;entryX=1;entryY=0.25;entryDx=0;entryDy=0;fillColor=#ffffff;" edge="1" parent="1" target="_DWHYlfgnZvCnFombpv0-42">
          <mxGeometry width="50" height="50" relative="1" as="geometry">
            <mxPoint x="830" y="300" as="sourcePoint" />
            <mxPoint x="810" y="270" as="targetPoint" />
            <Array as="points">
              <mxPoint x="830" y="338" />
            </Array>
          </mxGeometry>
        </mxCell>
        <mxCell id="_DWHYlfgnZvCnFombpv0-49" value="" style="shape=flexArrow;endArrow=classic;html=1;shadow=0;fontSize=16;exitX=1;exitY=0.75;exitDx=0;exitDy=0;entryX=0.5;entryY=1;entryDx=0;entryDy=0;fillColor=#ffffff;" edge="1" parent="1" source="_DWHYlfgnZvCnFombpv0-42" target="_DWHYlfgnZvCnFombpv0-12">
          <mxGeometry width="50" height="50" relative="1" as="geometry">
            <mxPoint x="760" y="320" as="sourcePoint" />
            <mxPoint x="810" y="270" as="targetPoint" />
            <Array as="points">
              <mxPoint x="960" y="393" />
            </Array>
          </mxGeometry>
        </mxCell>
        <mxCell id="_DWHYlfgnZvCnFombpv0-50" value="影响" style="text;html=1;strokeColor=none;fillColor=none;align=center;verticalAlign=middle;whiteSpace=wrap;rounded=0;labelBackgroundColor=none;fontColor=#000000;horizontal=1;fontSize=14;" vertex="1" parent="1">
          <mxGeometry x="815" y="300" width="80" height="45" as="geometry" />
        </mxCell>
        <mxCell id="_DWHYlfgnZvCnFombpv0-51" value="反映" style="text;html=1;strokeColor=none;fillColor=none;align=center;verticalAlign=middle;whiteSpace=wrap;rounded=0;labelBackgroundColor=none;fontColor=#000000;horizontal=1;fontSize=14;" vertex="1" parent="1">
          <mxGeometry x="840" y="345" width="80" height="60" as="geometry" />
        </mxCell>
        <mxCell id="_DWHYlfgnZvCnFombpv0-52" value="影响" style="text;html=1;strokeColor=none;fillColor=none;align=center;verticalAlign=middle;whiteSpace=wrap;rounded=0;labelBackgroundColor=none;fontColor=#000000;horizontal=1;fontSize=14;" vertex="1" parent="1">
          <mxGeometry x="870" y="205" width="80" height="45" as="geometry" />
        </mxCell>
        <mxCell id="_DWHYlfgnZvCnFombpv0-53" value="" style="shape=flexArrow;endArrow=classic;html=1;shadow=0;labelBackgroundColor=#ffffff;fontSize=16;fontColor=#000000;entryX=1;entryY=0.5;entryDx=0;entryDy=0;exitX=0;exitY=0.5;exitDx=0;exitDy=0;fillColor=#ffffff;" edge="1" parent="1" source="_DWHYlfgnZvCnFombpv0-21" target="_DWHYlfgnZvCnFombpv0-37">
          <mxGeometry width="50" height="50" relative="1" as="geometry">
            <mxPoint x="810" y="770" as="sourcePoint" />
            <mxPoint x="860" y="720" as="targetPoint" />
          </mxGeometry>
        </mxCell>
        <mxCell id="_DWHYlfgnZvCnFombpv0-54" value="皮肤温度变化率" style="rounded=1;whiteSpace=wrap;html=1;strokeColor=#CCCCCC;" vertex="1" parent="1">
          <mxGeometry x="1125" y="515" width="100" height="40" as="geometry" />
        </mxCell>
        <mxCell id="_DWHYlfgnZvCnFombpv0-55" value="" style="shape=flexArrow;endArrow=classic;html=1;exitX=1;exitY=0.25;exitDx=0;exitDy=0;entryX=0;entryY=0.25;entryDx=0;entryDy=0;fillColor=#ffffff;" edge="1" parent="1" source="_DWHYlfgnZvCnFombpv0-2" target="_DWHYlfgnZvCnFombpv0-14">
          <mxGeometry width="50" height="50" relative="1" as="geometry">
            <mxPoint x="870" y="640" as="sourcePoint" />
            <mxPoint x="920" y="590" as="targetPoint" />
          </mxGeometry>
        </mxCell>
        <mxCell id="_DWHYlfgnZvCnFombpv0-56" value="&lt;font style=&quot;font-size: 12px;&quot; face=&quot;Helvetica&quot;&gt;ΔTSV&lt;/font&gt;" style="rounded=1;whiteSpace=wrap;html=1;strokeColor=#CCCCCC;" vertex="1" parent="1">
          <mxGeometry x="1345" y="514" width="60" height="40" as="geometry" />
        </mxCell>
        <mxCell id="_DWHYlfgnZvCnFombpv0-57" value="" style="rounded=1;whiteSpace=wrap;html=1;labelBackgroundColor=#ffffff;fillColor=none;dashed=1;" vertex="1" parent="1">
          <mxGeometry x="975" y="510" width="140" height="50" as="geometry" />
        </mxCell>
        <mxCell id="_DWHYlfgnZvCnFombpv0-58" value="UTCI" style="rounded=1;whiteSpace=wrap;html=1;strokeColor=#CCCCCC;" vertex="1" parent="1">
          <mxGeometry x="980" y="515" width="60" height="40" as="geometry" />
        </mxCell>
        <mxCell id="_DWHYlfgnZvCnFombpv0-59" value="TSV" style="rounded=1;whiteSpace=wrap;html=1;strokeColor=#CCCCCC;" vertex="1" parent="1">
          <mxGeometry x="1050" y="515" width="60" height="40" as="geometry" />
        </mxCell>
        <mxCell id="_DWHYlfgnZvCnFombpv0-60" value="" style="shape=flexArrow;endArrow=classic;html=1;entryX=1;entryY=0.5;entryDx=0;entryDy=0;exitX=0.5;exitY=1;exitDx=0;exitDy=0;fillColor=#ffffff;" edge="1" parent="1" source="_DWHYlfgnZvCnFombpv0-35" target="_DWHYlfgnZvCnFombpv0-16">
          <mxGeometry width="50" height="50" relative="1" as="geometry">
            <mxPoint x="1220" y="610" as="sourcePoint" />
            <mxPoint x="910" y="685" as="targetPoint" />
            <Array as="points">
              <mxPoint x="1265" y="720" />
            </Array>
          </mxGeometry>
        </mxCell>
        <mxCell id="_DWHYlfgnZvCnFombpv0-61" value="" style="shape=flexArrow;endArrow=classic;html=1;exitX=0.5;exitY=1;exitDx=0;exitDy=0;entryX=1;entryY=0.5;entryDx=0;entryDy=0;fillColor=#ffffff;" edge="1" parent="1" source="_DWHYlfgnZvCnFombpv0-1" target="_DWHYlfgnZvCnFombpv0-21">
          <mxGeometry width="50" height="50" relative="1" as="geometry">
            <mxPoint x="1010" y="840" as="sourcePoint" />
            <mxPoint x="1060" y="790" as="targetPoint" />
            <Array as="points">
              <mxPoint x="1070" y="845" />
            </Array>
          </mxGeometry>
        </mxCell>
        <mxCell id="_DWHYlfgnZvCnFombpv0-62" value="" style="shape=flexArrow;endArrow=classic;html=1;entryX=0.5;entryY=0;entryDx=0;entryDy=0;fillColor=#ffffff;" edge="1" parent="1" source="_DWHYlfgnZvCnFombpv0-57" target="_DWHYlfgnZvCnFombpv0-17">
          <mxGeometry width="50" height="50" relative="1" as="geometry">
            <mxPoint x="930" y="640" as="sourcePoint" />
            <mxPoint x="980" y="590" as="targetPoint" />
            <Array as="points">
              <mxPoint x="1045" y="590" />
              <mxPoint x="1100" y="590" />
            </Array>
          </mxGeometry>
        </mxCell>
        <mxCell id="_DWHYlfgnZvCnFombpv0-63" value="不同场景：阳光/阴影&lt;br style=&quot;font-size: 12px;&quot;&gt;不同季节：夏季、冬季" style="rounded=1;whiteSpace=wrap;html=1;fontFamily=Tahoma;strokeColor=#CCCCCC;fontSize=12;" vertex="1" parent="1">
          <mxGeometry x="500" y="515" width="130" height="40" as="geometry" />
        </mxCell>
        <mxCell id="_DWHYlfgnZvCnFombpv0-64" value="7分制主观问卷" style="rounded=1;whiteSpace=wrap;html=1;fontFamily=Tahoma;strokeColor=#CCCCCC;" vertex="1" parent="1">
          <mxGeometry x="850" y="515" width="60" height="40" as="geometry" />
        </mxCell>
        <mxCell id="_DWHYlfgnZvCnFombpv0-65" value="" style="rounded=1;whiteSpace=wrap;html=1;labelBackgroundColor=#ffffff;fillColor=none;dashed=1;" vertex="1" parent="1">
          <mxGeometry x="635" y="510" width="210" height="50" as="geometry" />
        </mxCell>
        <mxCell id="_DWHYlfgnZvCnFombpv0-66" value="生理参数" style="rounded=1;whiteSpace=wrap;html=1;fontFamily=Tahoma;strokeColor=#CCCCCC;" vertex="1" parent="1">
          <mxGeometry x="640" y="515" width="60" height="40" as="geometry" />
        </mxCell>
        <mxCell id="_DWHYlfgnZvCnFombpv0-67" value="环境参数" style="rounded=1;whiteSpace=wrap;html=1;fontFamily=Tahoma;strokeColor=#CCCCCC;" vertex="1" parent="1">
          <mxGeometry x="710" y="515" width="60" height="40" as="geometry" />
        </mxCell>
        <mxCell id="_DWHYlfgnZvCnFombpv0-68" value="服装热阻" style="rounded=1;whiteSpace=wrap;html=1;fontFamily=Tahoma;strokeColor=#CCCCCC;" vertex="1" parent="1">
          <mxGeometry x="780" y="515" width="60" height="40" as="geometry" />
        </mxCell>
        <mxCell id="_DWHYlfgnZvCnFombpv0-69" value="&lt;font style=&quot;font-size: 14px&quot;&gt;UTCI&lt;/font&gt;" style="rounded=1;whiteSpace=wrap;html=1;labelBackgroundColor=none;fillColor=#d5e8d4;strokeColor=#82b366;fontSize=14;fontFamily=Tahoma;opacity=70;" vertex="1" parent="1">
          <mxGeometry x="680" y="690" width="120" height="60" as="geometry" />
        </mxCell>
        <mxCell id="_DWHYlfgnZvCnFombpv0-70" value="&lt;font style=&quot;font-size: 14px&quot;&gt;Rayman Pro&lt;/font&gt;" style="rounded=1;whiteSpace=wrap;html=1;labelBackgroundColor=none;fillColor=#d5e8d4;strokeColor=#82b366;fontSize=14;fontFamily=Tahoma;opacity=70;" vertex="1" parent="1">
          <mxGeometry x="680" y="598" width="120" height="60" as="geometry" />
        </mxCell>
        <mxCell id="_DWHYlfgnZvCnFombpv0-71" value="" style="shape=flexArrow;endArrow=classic;html=1;fillColor=#ffffff;exitX=0.5;exitY=1;exitDx=0;exitDy=0;entryX=0.5;entryY=0;entryDx=0;entryDy=0;" edge="1" parent="1" source="_DWHYlfgnZvCnFombpv0-65" target="_DWHYlfgnZvCnFombpv0-70">
          <mxGeometry width="50" height="50" relative="1" as="geometry">
            <mxPoint x="800" y="640" as="sourcePoint" />
            <mxPoint x="850" y="590" as="targetPoint" />
          </mxGeometry>
        </mxCell>
        <mxCell id="_DWHYlfgnZvCnFombpv0-72" value="" style="shape=flexArrow;endArrow=classic;html=1;fillColor=#ffffff;exitX=0.5;exitY=1;exitDx=0;exitDy=0;entryX=0.5;entryY=0;entryDx=0;entryDy=0;" edge="1" parent="1" source="_DWHYlfgnZvCnFombpv0-70" target="_DWHYlfgnZvCnFombpv0-69">
          <mxGeometry width="50" height="50" relative="1" as="geometry">
            <mxPoint x="750" y="570" as="sourcePoint" />
            <mxPoint x="750" y="620" as="targetPoint" />
          </mxGeometry>
        </mxCell>
        <mxCell id="_DWHYlfgnZvCnFombpv0-73" value="" style="shape=flexArrow;endArrow=classic;html=1;fillColor=#ffffff;exitX=1;exitY=0.5;exitDx=0;exitDy=0;entryX=0;entryY=0.5;entryDx=0;entryDy=0;" edge="1" parent="1" source="_DWHYlfgnZvCnFombpv0-69" target="_DWHYlfgnZvCnFombpv0-58">
          <mxGeometry width="50" height="50" relative="1" as="geometry">
            <mxPoint x="770" y="640" as="sourcePoint" />
            <mxPoint x="820" y="590" as="targetPoint" />
            <Array as="points">
              <mxPoint x="940" y="720" />
              <mxPoint x="940" y="535" />
            </Array>
          </mxGeometry>
        </mxCell>
        <mxCell id="_DWHYlfgnZvCnFombpv0-74" value="" style="edgeStyle=orthogonalEdgeStyle;rounded=0;orthogonalLoop=1;jettySize=auto;html=1;endArrow=classic;endFill=1;fillColor=#ffffff;fontSize=14;" edge="1" parent="1" source="_DWHYlfgnZvCnFombpv0-75" target="_DWHYlfgnZvCnFombpv0-12">
          <mxGeometry relative="1" as="geometry" />
        </mxCell>
        <mxCell id="_DWHYlfgnZvCnFombpv0-75" value="&lt;font style=&quot;font-size: 14px&quot;&gt;骑行状态下的UTCI与热感觉仍有良好的相关性。但是平均皮肤温度与热感觉相关性很弱，皮肤温度变化率能更好地反映骑行热感觉。&lt;/font&gt;" style="rounded=1;whiteSpace=wrap;html=1;labelBackgroundColor=none;fillColor=#f8cecc;strokeColor=#b85450;fontFamily=Tahoma;fontSize=14;opacity=70;" vertex="1" parent="1">
          <mxGeometry x="1070" y="265" width="190" height="100" as="geometry" />
        </mxCell>
        <mxCell id="_DWHYlfgnZvCnFombpv0-76" value="" style="shape=flexArrow;endArrow=classic;html=1;fillColor=#ffffff;exitX=1;exitY=0.5;exitDx=0;exitDy=0;entryX=0;entryY=0.5;entryDx=0;entryDy=0;" edge="1" parent="1" source="_DWHYlfgnZvCnFombpv0-12" target="_DWHYlfgnZvCnFombpv0-75">
          <mxGeometry width="50" height="50" relative="1" as="geometry">
            <mxPoint x="970" y="330" as="sourcePoint" />
            <mxPoint x="1020" y="280" as="targetPoint" />
          </mxGeometry>
        </mxCell>
        <mxCell id="_DWHYlfgnZvCnFombpv0-77" value="&lt;font style=&quot;font-size: 14px&quot;&gt;太阳辐射是导致环境参数突变的主要因素，同时其也会对人体皮肤进行辐射传热。&lt;/font&gt;" style="rounded=1;whiteSpace=wrap;html=1;labelBackgroundColor=none;fillColor=#f5f5f5;fontColor=#333333;strokeColor=#666666;fontFamily=Tahoma;fontSize=14;" vertex="1" parent="1">
          <mxGeometry x="495" y="598" width="170" height="153" as="geometry" />
        </mxCell>
        <mxCell id="_DWHYlfgnZvCnFombpv0-78" value="" style="shape=flexArrow;endArrow=classic;html=1;fillColor=#ffffff;exitX=0.5;exitY=1;exitDx=0;exitDy=0;entryX=0.5;entryY=0;entryDx=0;entryDy=0;" edge="1" parent="1" source="_DWHYlfgnZvCnFombpv0-63">
          <mxGeometry width="50" height="50" relative="1" as="geometry">
            <mxPoint x="564.5" y="560" as="sourcePoint" />
            <mxPoint x="564.5" y="598" as="targetPoint" />
          </mxGeometry>
        </mxCell>
        <mxCell id="_DWHYlfgnZvCnFombpv0-79" value="Logistic函数" style="text;html=1;strokeColor=none;fillColor=none;align=center;verticalAlign=middle;whiteSpace=wrap;rounded=0;labelBackgroundColor=none;fontColor=#000000;horizontal=1;fontSize=14;fontFamily=Tahoma;" vertex="1" parent="1">
          <mxGeometry x="1050" y="545" width="80" height="60" as="geometry" />
        </mxCell>
        <mxCell id="_DWHYlfgnZvCnFombpv0-80" value="线性拟合" style="text;html=1;strokeColor=none;fillColor=none;align=center;verticalAlign=middle;whiteSpace=wrap;rounded=0;labelBackgroundColor=none;fontColor=#000000;horizontal=1;fontSize=14;fontFamily=Tahoma;" vertex="1" parent="1">
          <mxGeometry x="1265" y="610" width="80" height="60" as="geometry" />
        </mxCell>
        <mxCell id="_DWHYlfgnZvCnFombpv0-81" value="&lt;font style=&quot;font-size: 14px&quot;&gt;TSV和TCV&lt;/font&gt;" style="rounded=1;whiteSpace=wrap;html=1;labelBackgroundColor=none;fillColor=#d5e8d4;strokeColor=#82b366;fontSize=14;fontFamily=Tahoma;opacity=70;" vertex="1" parent="1">
          <mxGeometry x="820" y="598" width="100" height="60" as="geometry" />
        </mxCell>
        <mxCell id="_DWHYlfgnZvCnFombpv0-82" value="" style="shape=flexArrow;endArrow=classic;html=1;fillColor=#ffffff;fontFamily=Tahoma;fontSize=14;exitX=0.5;exitY=1;exitDx=0;exitDy=0;" edge="1" parent="1" source="_DWHYlfgnZvCnFombpv0-64">
          <mxGeometry width="50" height="50" relative="1" as="geometry">
            <mxPoint x="730" y="600" as="sourcePoint" />
            <mxPoint x="880" y="598" as="targetPoint" />
          </mxGeometry>
        </mxCell>
        <mxCell id="_DWHYlfgnZvCnFombpv0-83" value="" style="shape=flexArrow;endArrow=classic;html=1;strokeColor=#000000;fillColor=#ffffff;fontFamily=Tahoma;fontSize=14;" edge="1" parent="1">
          <mxGeometry width="50" height="50" relative="1" as="geometry">
            <mxPoint x="881" y="658" as="sourcePoint" />
            <mxPoint x="881" y="715" as="targetPoint" />
          </mxGeometry>
        </mxCell>
      </root>
    </mxGraphModel>
  </diagram>
</mxfile>
